<svg xmlns="http://www.w3.org/2000/svg" width="600" height="400" viewBox="0 0 600 400"><rect width="100%" height="100%" fill="#DDDDDD"/><path fill="#999999" d="M160.92 170.395h9.6v58.56h-5.59q-1.3 0-2.17-.43-.87-.42-1.68-1.43l-30.57-39.05q.24 2.68.24 4.95v35.96h-9.6v-58.56h5.71q.69 0 1.2.06.5.06.89.24.38.18.75.53.36.34.81.91l30.69 39.2q-.12-1.42-.2-2.79-.08-1.38-.08-2.55zm39.45 16.36q4.62 0 8.4 1.5 3.79 1.5 6.48 4.25 2.7 2.75 4.15 6.72 1.46 3.97 1.46 8.87 0 4.94-1.46 8.91-1.45 3.97-4.15 6.77-2.69 2.79-6.48 4.29-3.78 1.5-8.4 1.5-4.66 0-8.47-1.5-3.8-1.5-6.5-4.29-2.69-2.8-4.17-6.77t-1.48-8.91q0-4.9 1.48-8.87t4.17-6.72q2.7-2.75 6.5-4.25 3.81-1.5 8.47-1.5m0 35.11q5.18 0 7.67-3.48t2.49-10.21q0-6.72-2.49-10.24-2.49-3.53-7.67-3.53-5.27 0-7.8 3.55-2.53 3.54-2.53 10.22 0 6.69 2.53 10.19t7.8 3.5m60.3-22.03h8.14q3 0 5.23-.75t3.7-2.15q1.48-1.39 2.21-3.4.73-2 .73-4.47 0-2.35-.73-4.26-.73-1.9-2.19-3.23-1.45-1.34-3.68-2.05t-5.27-.71h-8.14zm-10.89-29.44h19.03q5.88 0 10.17 1.37 4.29 1.38 7.09 3.85 2.79 2.47 4.15 5.91 1.35 3.45 1.35 7.54 0 4.25-1.41 7.79-1.42 3.55-4.26 6.1-2.83 2.55-7.1 3.97-4.28 1.42-9.99 1.42h-8.14v20.61h-10.89zm66.94 16.36q4.62 0 8.41 1.5t6.48 4.25 4.15 6.72 1.46 8.87q0 4.94-1.46 8.91t-4.15 6.77q-2.69 2.79-6.48 4.29t-8.41 1.5q-4.65 0-8.46-1.5t-6.5-4.29q-2.69-2.8-4.17-6.77t-1.48-8.91q0-4.9 1.48-8.87t4.17-6.72 6.5-4.25 8.46-1.5m0 35.11q5.19 0 7.68-3.48t2.49-10.21q0-6.72-2.49-10.24-2.49-3.53-7.68-3.53-5.26 0-7.79 3.55-2.53 3.54-2.53 10.22 0 6.69 2.53 10.19t7.79 3.5m55.77-29.97-2.26 3.61q-.41.65-.86.91-.44.26-1.13.26-.73 0-1.56-.4-.83-.41-1.92-.91-1.1-.51-2.49-.92-1.4-.4-3.3-.4-2.96 0-4.64 1.25-1.68 1.26-1.68 3.28 0 1.34.87 2.25t2.31 1.6 3.26 1.24q1.82.54 3.7 1.19 1.89.65 3.71 1.48t3.26 2.11q1.44 1.27 2.31 3.05.87 1.79.87 4.3 0 2.99-1.07 5.53-1.08 2.53-3.18 4.37-2.11 1.84-5.21 2.88-3.1 1.03-7.15 1.03-2.14 0-4.19-.39-2.04-.38-3.93-1.07-1.88-.69-3.48-1.62t-2.81-2.03l2.3-3.8q.45-.69 1.06-1.05.6-.37 1.54-.37.93 0 1.76.53.83.52 1.92 1.13 1.1.61 2.57 1.14 1.48.52 3.75.52 1.78 0 3.06-.42 1.27-.43 2.1-1.12t1.22-1.6q.38-.91.38-1.88 0-1.46-.87-2.39t-2.31-1.62q-1.43-.69-3.28-1.24-1.84-.54-3.76-1.19-1.93-.65-3.77-1.52t-3.28-2.21q-1.44-1.33-2.31-3.28-.87-1.94-.87-4.69 0-2.56 1.01-4.86 1.02-2.31 2.98-4.03 1.96-1.73 4.9-2.76t6.78-1.03q4.3 0 7.82 1.42 3.52 1.41 5.87 3.72m21.83 37.71q-5.42 0-8.32-3.06t-2.9-8.44v-23.21h-4.25q-.81 0-1.38-.53-.56-.52-.56-1.58v-3.97l6.68-1.09 2.11-11.34q.2-.81.77-1.25.56-.45 1.45-.45h5.19v13.08h11.09v7.13h-11.09v22.52q0 1.94.95 3.03.95 1.1 2.61 1.1.93 0 1.56-.22.63-.23 1.09-.47.47-.24.83-.47.37-.22.73-.22.45 0 .73.22.29.23.61.67l3 4.86q-2.19 1.82-5.02 2.76-2.84.93-5.88.93m24.18-26.21h18.87q0-1.94-.54-3.66-.55-1.72-1.64-3.02-1.1-1.29-2.78-2.04t-3.91-.75q-4.33 0-6.82 2.47t-3.18 7m25.52 6.04H418.3q.24 3.2 1.13 5.53t2.35 3.84q1.46 1.52 3.46 2.27 2.01.75 4.44.75t4.19-.57q1.76-.56 3.08-1.25t2.31-1.26q.99-.56 1.92-.56 1.26 0 1.86.93l2.88 3.64q-1.66 1.95-3.73 3.26-2.06 1.32-4.31 2.11t-4.58 1.11q-2.32.33-4.51.33-4.34 0-8.06-1.44-3.73-1.44-6.48-4.25-2.76-2.82-4.33-6.97-1.58-4.15-1.58-9.62 0-4.25 1.37-8 1.38-3.74 3.95-6.52 2.57-2.77 6.28-4.39 3.7-1.62 8.36-1.62 3.93 0 7.25 1.25 3.32 1.26 5.71 3.67t3.75 5.91q1.36 3.51 1.36 8 0 2.27-.49 3.06t-1.86.79m18.67-19.52.6 4.7q1.95-3.73 4.62-5.86 2.67-2.12 6.32-2.12 2.87 0 4.62 1.25l-.65 7.5q-.2.72-.59 1.03-.38.3-1.03.3-.61 0-1.8-.2-1.2-.2-2.33-.2-1.66 0-2.96.48-1.3.49-2.33 1.4t-1.82 2.21q-.79 1.29-1.48 2.95v25.6h-10v-41.55h5.87q1.54 0 2.15.54.6.55.81 1.97"/></svg>